# xmcd
#
# Track frame offsets: 
#        150
#        19507
#        36909
#        52145
#        70885
#        88789
#        103965
#        119117
#        133887
#        148979
#        168889
#
# Disc length: 2405 seconds
#
# Revision: 1
# Processed by: cddbd v1.5.2PL0 Copyright (c) Steve Scherf et al.
# Submitted via: ExactAudioCopyFreeDBPlugin 1.0
#
DISCID=ab09630b
DTITLE=Rinkinys - Be PROTO geros dainos
DYEAR=2003
DGENRE=Pop
TTITLE0=Samas and Marcius - Samas and Marcius-Sirdziu edikai \\ DJ Gerbiam
TTITLE0='s
TTITLE1=Zas - Zas \\ Po stikliuka
TTITLE2=Samas and Marcius - Samas and Marcius-Sirdziu edikai - Gal ir teks
TTITLE3=Zas - Zas \\ Man gerai
TTITLE4=Samas and Marcius - Samas and Marcius-Sirdziu edikai - Tavo langu 
TTITLE4=siluma
TTITLE5=Zas - Zas \\ Balnokit broliai zirgus
TTITLE6=Henrikas - Henrikas \\ Sapnas
TTITLE7=Zas - Zas \\ Gabalas kuris veza
TTITLE8=Samas and Marcius - Samas and Marcius-Sirdziu edikai - Tu man atle
TTITLE8=isk
TTITLE9=Zas - Zas \\ As ne toks
TTITLE10=Samas and Marcius - Samas and Marcius-Sirdziu edikai - Valio sena
TTITLE10=jam mersedesui!
EXTD=
EXTT0=
EXTT1=
EXTT2=
EXTT3=
EXTT4=
EXTT5=
EXTT6=
EXTT7=
EXTT8=
EXTT9=
EXTT10=
PLAYORDER=
